<?xml version="1.0" encoding="UTF-8"?>
<svg version="1.1" xmlns="http://www.w3.org/2000/svg" width="512" height="512">
<path d="M0 0 C1.01790619 0.00215515 2.03581238 0.0043103 3.08456421 0.00653076 C17.69363523 0.05620146 32.02575853 0.30709809 46.375 3.3125 C47.34985352 3.51117676 48.32470703 3.70985352 49.32910156 3.91455078 C97.7109774 14.03517194 141.69928269 35.9516877 177.375 70.3125 C178.3640332 71.26068604 178.3640332 71.26068604 179.37304688 72.22802734 C188.86130305 81.37247479 197.6012044 90.66984009 205.375 101.3125 C206.23306152 102.46355017 207.09113451 103.61459177 207.94921875 104.765625 C213.98736829 112.95680614 219.34595521 121.47054105 224.375 130.3125 C224.73948242 130.94430176 225.10396484 131.57610352 225.47949219 132.22705078 C247.08534998 169.97532572 256.85198095 212.74189997 256.6875 255.9375 C256.68534485 256.95540619 256.6831897 257.97331238 256.68096924 259.02206421 C256.63129854 273.63113523 256.38040191 287.96325853 253.375 302.3125 C253.07698486 303.77478027 253.07698486 303.77478027 252.77294922 305.26660156 C242.65232806 353.6484774 220.7358123 397.63678269 186.375 433.3125 C185.74287598 433.97185547 185.11075195 434.63121094 184.45947266 435.31054688 C175.31502521 444.79880305 166.01765991 453.5387044 155.375 461.3125 C154.22394983 462.17056152 153.07290823 463.02863451 151.921875 463.88671875 C143.73224019 469.92427396 135.22961724 475.30707302 126.375 480.3125 C125.66778809 480.7146875 124.96057617 481.116875 124.23193359 481.53125 C101.09654164 494.5566741 75.92537591 503.30551461 49.9375 508.625 C49.21860596 508.77235596 48.49971191 508.91971191 47.7590332 509.0715332 C33.08339502 511.86090125 18.55831162 512.66142619 3.64770508 512.62817383 C0.70811513 512.6250221 -2.2304558 512.64854926 -5.16992188 512.67382812 C-18.54306192 512.71848737 -31.43916711 511.51301542 -44.625 509.3125 C-46.33055054 509.03031616 -46.33055054 509.03031616 -48.07055664 508.74243164 C-91.33802759 500.97044532 -132.38793216 480.98345309 -165.625 452.3125 C-166.37007813 451.67828125 -167.11515625 451.0440625 -167.8828125 450.390625 C-181.38779833 438.57948485 -194.05918743 425.82889772 -204.625 411.3125 C-205.48149066 410.16255169 -206.33826433 409.01281411 -207.1953125 407.86328125 C-213.23534209 399.67315742 -218.61867614 391.16870382 -223.625 382.3125 C-224.0271875 381.60528809 -224.429375 380.89807617 -224.84375 380.16943359 C-237.8691741 357.03404164 -246.61801461 331.86287591 -251.9375 305.875 C-252.08485596 305.15610596 -252.23221191 304.43721191 -252.3840332 303.6965332 C-255.35789088 288.05024391 -255.99800362 272.57681954 -255.9375 256.6875 C-255.93534485 255.66959381 -255.9331897 254.65168762 -255.93096924 253.60293579 C-255.88129854 238.99386477 -255.63040191 224.66174147 -252.625 210.3125 C-252.42632324 209.33764648 -252.22764648 208.36279297 -252.02294922 207.35839844 C-241.90232806 158.9765226 -219.9858123 114.98821731 -185.625 79.3125 C-184.99287598 78.65314453 -184.36075195 77.99378906 -183.70947266 77.31445312 C-174.56502521 67.82619695 -165.26765991 59.0862956 -154.625 51.3125 C-153.47394983 50.45443848 -152.32290823 49.59636549 -151.171875 48.73828125 C-142.98224019 42.70072604 -134.47961724 37.31792698 -125.625 32.3125 C-124.91778809 31.9103125 -124.21057617 31.508125 -123.48193359 31.09375 C-100.34654164 18.0683259 -75.17537591 9.31948539 -49.1875 4 C-48.46860596 3.85264404 -47.74971191 3.70528809 -47.0090332 3.5534668 C-31.36274391 0.57960912 -15.88931954 -0.06050362 0 0 Z " fill="#F5C762" transform="translate(255.625,-0.3125)"/>
<path d="M0 0 C0.67305176 0.31453125 1.34610352 0.6290625 2.03955078 0.953125 C19.52753312 9.29293573 35.80442262 21.95013855 48 37 C49.15628906 38.39992188 49.15628906 38.39992188 50.3359375 39.828125 C74.65628303 69.89011692 84.804203 107.66713599 82 146 C81.14350774 152.77256743 79.64320738 159.38139431 78 166 C77.64228516 167.56427734 77.64228516 167.56427734 77.27734375 169.16015625 C71.73072342 191.71198383 59.72643515 211.86279932 44.04296875 228.74609375 C42.62267694 230.31303137 41.25972355 231.9330861 39.9453125 233.58984375 C37.005274 237.23242157 33.62992014 240.0583216 30 243 C29.50661133 243.39993164 29.01322266 243.79986328 28.50488281 244.21191406 C-1.8446862 268.45867992 -39.21242889 279.03070468 -77.76757812 275.765625 C-83.23678509 275.13151405 -88.6211813 274.16827842 -94 273 C-95.00015137 272.7831958 -95.00015137 272.7831958 -96.02050781 272.56201172 C-124.21158585 266.20740776 -147.96335825 251.5781726 -168 231 C-168.48339844 230.56171875 -168.96679688 230.1234375 -169.46484375 229.671875 C-193.04641918 207.6993953 -206.59287325 172.49312531 -208.109375 140.70751953 C-209.47852642 98.25526817 -196.19118551 60.35116516 -167.0625 29.08984375 C-163.86101057 25.84591033 -160.54040667 22.86895023 -157 20 C-156.06671875 19.22914063 -155.1334375 18.45828125 -154.171875 17.6640625 C-110.67780648 -17.51315155 -50.23673673 -23.57355298 0 0 Z " fill="#EDEEED" transform="translate(319,125)"/>
<path d="M0 0 C2.20793738 1.91543138 4.36196209 3.88199575 6.5 5.875 C7.4595459 6.76880371 7.4595459 6.76880371 8.43847656 7.68066406 C17.94784664 16.64325675 26.3596585 25.9174075 33.5 36.875 C33.92474609 37.5251709 34.34949219 38.1753418 34.78710938 38.84521484 C59.24129034 76.9230753 66.25003752 121.81464249 56.65625 165.875 C46.09632813 208.84295794 18.78782254 245.5186002 -18.63745117 268.78710938 C-28.15610462 274.53372276 -38.11035811 278.95390919 -48.5 282.875 C-49.15226563 283.12620605 -49.80453125 283.37741211 -50.4765625 283.63623047 C-88.63126544 298.01408793 -133.98717331 294.61874942 -170.8125 278.125 C-184.11255408 271.95464322 -196.40858275 264.50402148 -207.5 254.875 C-208.2940625 254.19050781 -209.088125 253.50601562 -209.90625 252.80078125 C-212.47893643 250.5333978 -214.99650097 248.21854292 -217.5 245.875 C-218.46035156 244.98039062 -219.42070312 244.08578125 -220.41015625 243.1640625 C-237.96880605 226.44004677 -249.9912374 205.42051109 -258.5 182.875 C-258.75120605 182.22273437 -259.00241211 181.57046875 -259.26123047 180.8984375 C-273.46687764 143.20073119 -270.41268051 97.99095436 -254.1875 61.5 C-246.16838265 44.1269354 -235.69632134 28.77032392 -222.5 14.875 C-222.05285645 14.400625 -221.60571289 13.92625 -221.14501953 13.4375 C-164.14387316 -46.67493448 -63.9729895 -53.64355167 0 0 Z M-201.24609375 20.83203125 C-202.81303137 22.25232306 -204.4330861 23.61527645 -206.08984375 24.9296875 C-209.73277559 27.87001174 -212.55605182 31.24654213 -215.5 34.875 C-216.31597656 35.88046875 -217.13195312 36.8859375 -217.97265625 37.921875 C-234.34582907 58.81436697 -244.13809383 82.68293819 -247.5 108.875 C-247.69722656 110.29619141 -247.69722656 110.29619141 -247.8984375 111.74609375 C-248.2118554 114.46097043 -248.38096618 117.14422418 -248.5 119.875 C-248.53254883 120.53564453 -248.56509766 121.19628906 -248.59863281 121.87695312 C-250.23251426 159.604761 -237.77100807 195.07096614 -212.75 223.3125 C-209.74187889 226.58083919 -206.68304706 229.77571734 -203.5 232.875 C-203.06171875 233.35839844 -202.6234375 233.84179688 -202.171875 234.33984375 C-183.97533306 253.86896073 -156.42391687 266.08953368 -130.5 270.875 C-128.88738281 271.18244141 -128.88738281 271.18244141 -127.2421875 271.49609375 C-119.09262824 272.81789027 -111.0569597 273.07933276 -102.8125 273.125 C-101.77963867 273.13426514 -100.74677734 273.14353027 -99.68261719 273.15307617 C-92.43730946 273.12368461 -85.60758439 272.23248235 -78.5 270.875 C-76.94670641 270.61143741 -75.39332793 270.34837436 -73.83984375 270.0859375 C-61.96141598 267.90353526 -51.38694351 264.05856804 -40.5 258.875 C-39.82984863 258.56046875 -39.15969727 258.2459375 -38.46923828 257.921875 C-20.97612941 249.58383169 -4.69838344 236.92832425 7.5 221.875 C8.27085937 220.94171875 9.04171875 220.0084375 9.8359375 219.046875 C18.93848802 207.78952892 25.96317991 195.2448465 31.5 181.875 C31.80703857 181.16529053 32.11407715 180.45558105 32.43041992 179.72436523 C35.05269294 173.48529148 36.76912391 167.2959468 38.1875 160.6875 C38.50557617 159.26920898 38.50557617 159.26920898 38.83007812 157.82226562 C45.8476378 126.05507907 41.12999347 91.8050367 26.5 62.875 C26.14921387 62.17890625 25.79842773 61.4828125 25.43701172 60.765625 C20.20484173 50.56493078 13.91748512 41.59839962 6.5 32.875 C5.70207031 31.93527344 4.90414062 30.99554688 4.08203125 30.02734375 C-0.443169 24.86347496 -5.12920109 20.15223722 -10.5 15.875 C-11.52222656 15.05386719 -12.54445313 14.23273438 -13.59765625 13.38671875 C-36.02775786 -4.09205724 -64.75830575 -16.60445185 -93.5 -17.125 C-94.13760254 -17.14401367 -94.77520508 -17.16302734 -95.43212891 -17.18261719 C-135.25087654 -18.30220401 -171.76864104 -6.55057711 -201.24609375 20.83203125 Z " fill="#595C6D" transform="translate(359.5,128.125)"/>
<path d="M0 0 C0 3.64429672 -0.99326123 5.07469628 -2.82421875 8.20703125 C-3.43467041 9.25826172 -4.04512207 10.30949219 -4.67407227 11.39257812 C-5.67071899 13.08543945 -5.67071899 13.08543945 -6.6875 14.8125 C-7.37021286 15.98212867 -8.05241809 17.15205378 -8.73413086 18.32226562 C-10.4772095 21.30998339 -12.22854929 24.29275341 -13.98352051 27.27349854 C-14.95320935 28.92052558 -15.92146536 30.56839595 -16.88964844 32.21630859 C-19.617565 36.85733849 -22.35182891 41.49454276 -25.09765625 46.125 C-25.80668091 47.32672852 -25.80668091 47.32672852 -26.5300293 48.55273438 C-27.55879818 50.26546969 -28.61190733 51.96371188 -29.68286133 53.65039062 C-30.50113403 54.95266602 -30.50113403 54.95266602 -31.3359375 56.28125 C-31.83270996 57.05533203 -32.32948242 57.82941406 -32.84130859 58.62695312 C-34.55099157 62.12845303 -34.51543731 65.42666696 -34.68359375 69.26171875 C-35.42471186 75.67559273 -38.68067981 81.15530711 -43.4375 85.4375 C-48.31728059 89.13904297 -52.35098841 90.95722756 -58.45703125 91.62109375 C-65.80455915 92.81312321 -70.94011997 96.1542217 -77 100.3125 C-78.07652832 101.02656006 -79.15305664 101.74062012 -80.26220703 102.47631836 C-82.46038723 103.93522866 -84.65332243 105.40207399 -86.84082031 106.87695312 C-91.48206881 109.99598689 -96.17903597 113.02679811 -100.875 116.0625 C-102.48210197 117.10886659 -104.08888849 118.15571789 -105.6953125 119.203125 C-110.77236968 122.50756011 -115.87629526 125.7683055 -121 129 C-121.33 128.34 -121.66 127.68 -122 127 C-120.97460938 124.78295898 -120.97460938 124.78295898 -119.34375 121.99609375 C-118.74014648 120.95670654 -118.13654297 119.91731934 -117.51464844 118.84643555 C-116.84981445 117.72148682 -116.18498047 116.59653809 -115.5 115.4375 C-114.82009549 114.27481253 -114.14074004 113.11180382 -113.46191406 111.94848633 C-106.89733212 100.72558713 -100.20524297 89.57677345 -93.47949219 78.44995117 C-92.74714355 77.23722534 -92.74714355 77.23722534 -92 76 C-91.45287354 75.13697266 -90.90574707 74.27394531 -90.34204102 73.38476562 C-88.62220215 70.32866483 -88.47990918 67.79411862 -88.1875 64.3125 C-87.04652806 55.45373411 -84.02435805 49.07303015 -76.9375 43.5 C-70.23971963 39.02219957 -70.23971963 39.02219957 -65.98022461 38.97998047 C-57.74329164 38.80667762 -52.53260683 35.04749625 -45.9375 30.4375 C-44.81097821 29.67130835 -43.68293665 28.90734693 -42.5534668 28.14550781 C-40.80357943 26.9646771 -39.05485517 25.78242453 -37.31092834 24.59280396 C-31.0678158 20.33663377 -24.69517344 16.29253396 -18.3125 12.25 C-12.09494539 8.30802475 -5.93928075 4.35270366 0 0 Z " fill="#595D6F" transform="translate(317,191)"/>
<path d="M0 0 C0 3.64429672 -0.99326123 5.07469628 -2.82421875 8.20703125 C-3.73989624 9.78387695 -3.73989624 9.78387695 -4.67407227 11.39257812 C-5.33850342 12.52115234 -6.00293457 13.64972656 -6.6875 14.8125 C-7.37021286 15.98212867 -8.05241809 17.15205378 -8.73413086 18.32226562 C-10.4772095 21.30998339 -12.22854929 24.29275341 -13.98352051 27.27349854 C-14.95320935 28.92052558 -15.92146536 30.56839595 -16.88964844 32.21630859 C-22.54589198 41.83932851 -28.2486618 51.43351841 -34 61 C-35.55892239 58.66161642 -36.54209559 56.7801505 -37.625 54.25 C-41.56118939 46.37762122 -48.02398128 42.53353686 -56.09375 39.62890625 C-56.7228125 39.42136719 -57.351875 39.21382812 -58 39 C-54.76441629 35.43276896 -51.08900824 33.02761956 -47 30.5625 C-45.55890416 29.67739384 -44.11884813 28.79059306 -42.6796875 27.90234375 C-41.53838379 27.19827393 -41.53838379 27.19827393 -40.37402344 26.47998047 C-36.25735603 23.91362528 -32.19027539 21.27177056 -28.125 18.625 C-27.29516602 18.08472168 -26.46533203 17.54444336 -25.61035156 16.98779297 C-17.03191151 11.38774748 -8.50961622 5.70390942 0 0 Z " fill="#EE5463" transform="translate(317,191)"/>
<path d="M0 0 C0.33 0 0.66 0 1 0 C1.01417969 0.76183594 1.02835938 1.52367187 1.04296875 2.30859375 C1.42647659 10.61102015 2.92449991 16.67327045 8.7109375 22.81640625 C13.64739325 27.28939563 18.12673288 29.14169153 24.8125 29.625 C25.78832031 29.69976562 26.76414063 29.77453125 27.76953125 29.8515625 C28.50558594 29.90054687 29.24164063 29.94953125 30 30 C30 30.33 30 30.66 30 31 C28.824375 31.12375 27.64875 31.2475 26.4375 31.375 C19.46284964 32.95131417 14.05670805 37.42271501 8.29443359 41.43603516 C3.97573471 44.37980884 -0.45624093 47.14722656 -4.875 49.9375 C-14.28729241 55.90157965 -23.65688908 61.92821704 -33 68 C-33.33 67.34 -33.66 66.68 -34 66 C-32.97460938 63.78295898 -32.97460938 63.78295898 -31.34375 60.99609375 C-30.74014648 59.95670654 -30.13654297 58.91731934 -29.51464844 57.84643555 C-28.84981445 56.72148682 -28.18498047 55.59653809 -27.5 54.4375 C-26.82009549 53.27481253 -26.14074004 52.11180382 -25.46191406 50.94848633 C-18.89733212 39.72558713 -12.20524297 28.57677345 -5.47949219 17.44995117 C-4.99125977 16.64146729 -4.50302734 15.8329834 -4 15 C-3.4527124 14.12617676 -2.9054248 13.25235352 -2.34155273 12.35205078 C-0.81359623 9.67319128 -0.51640741 7.74611118 -0.3125 4.6875 C-0.24675781 3.80449219 -0.18101562 2.92148438 -0.11328125 2.01171875 C-0.07589844 1.34785156 -0.03851563 0.68398437 0 0 Z " fill="#6BB0EC" transform="translate(229,252)"/>
<path d="M0 0 C4.31742818 2.2145429 6.89007122 4.93784419 8.875 9.3046875 C9.68809889 15.50456652 9.58503252 21.05946911 5.875 26.3046875 C1.72918621 30.23230057 -1.87698917 32.10032288 -7.5625 32.6171875 C-12.82459641 32.1556001 -15.87106016 30.35913691 -19.875 26.9921875 C-23.12431863 23.11105691 -23.91975642 19.88799513 -24.5625 14.9296875 C-23.82809706 8.84463456 -20.87021403 4.9667961 -16.5 0.8046875 C-11.15320954 -1.57166381 -5.60544601 -1.83413491 0 0 Z " fill="#81899D" transform="translate(263.125,240.6953125)"/>
<path d="M0 0 C1.98 0 3.96 0 6 0 C6 5.28 6 10.56 6 16 C4.02 16 2.04 16 0 16 C0 10.72 0 5.44 0 0 Z " fill="#414451" transform="translate(253,375)"/>
<path d="M0 0 C5.28 0 10.56 0 16 0 C16 1.98 16 3.96 16 6 C10.72 6 5.44 6 0 6 C0 4.02 0 2.04 0 0 Z " fill="#414451" transform="translate(375,253)"/>
<path d="M0 0 C5.28 0 10.56 0 16 0 C16 1.98 16 3.96 16 6 C10.72 6 5.44 6 0 6 C0 4.02 0 2.04 0 0 Z " fill="#414451" transform="translate(121,253)"/>
<path d="M0 0 C1.98 0 3.96 0 6 0 C6 5.28 6 10.56 6 16 C4.02 16 2.04 16 0 16 C0 10.72 0 5.44 0 0 Z " fill="#414451" transform="translate(253,121)"/>
<path d="M0 0 C4.10958767 1.45044271 7.43258745 3.51110752 11 6 C10.34 7.65 9.68 9.3 9 11 C4.24518354 10.42365861 1.02951788 8.44931479 -3 6 C-1.125 1.125 -1.125 1.125 0 0 Z " fill="#4B4E5A" transform="translate(362,314)"/>
<path d="M0 0 C0.66 1.65 1.32 3.3 2 5 C-2.455 7.97 -2.455 7.97 -7 11 C-11 9 -11 9 -11.75 6.875 C-11.8325 6.25625 -11.915 5.6375 -12 5 C-10.56705502 4.15885829 -9.12845595 3.32734313 -7.6875 2.5 C-6.88699219 2.0359375 -6.08648437 1.571875 -5.26171875 1.09375 C-3 0 -3 0 0 0 Z " fill="#4B4E5A" transform="translate(371,187)"/>
<path d="M0 0 C4 4 4 4 4 6 C2.56705502 6.84114171 1.12845595 7.67265687 -0.3125 8.5 C-1.11300781 8.9640625 -1.91351563 9.428125 -2.73828125 9.90625 C-5 11 -5 11 -8 11 C-8.66 9.35 -9.32 7.7 -10 6 C-6.7 4.02 -3.4 2.04 0 0 Z " fill="#494C58" transform="translate(149,314)"/>
<path d="M0 0 C4.75481646 0.57634139 7.97048212 2.55068521 12 5 C10.25 9.875 10.25 9.875 8 11 C5.6171875 9.78515625 5.6171875 9.78515625 2.875 8.0625 C1.96492187 7.49660156 1.05484375 6.93070313 0.1171875 6.34765625 C-0.58148438 5.90292969 -1.28015625 5.45820313 -2 5 C-1.34 3.35 -0.68 1.7 0 0 Z " fill="#494C58" transform="translate(141,187)"/>
<path d="M0 0 C3.32084603 1.71073886 4.83418268 4.59743199 6.0625 8.0625 C5.5625 10.4375 5.5625 10.4375 4.0625 12.0625 C1.96875 12.6640625 1.96875 12.6640625 0.0625 13.0625 C-0.77598804 11.60712432 -1.60813934 10.14809627 -2.4375 8.6875 C-3.13359375 7.46933594 -3.13359375 7.46933594 -3.84375 6.2265625 C-4.9375 4.0625 -4.9375 4.0625 -4.9375 2.0625 C-1.9375 0.0625 -1.9375 0.0625 0 0 Z " fill="#4B4E5A" transform="translate(318.9375,359.9375)"/>
<path d="M0 0 C2.16874252 0.50603992 3.99967627 0.99983813 6 2 C4.55049545 5.7910119 2.84827434 9.3874638 1 13 C-1.475 12.01 -1.475 12.01 -4 11 C-4 5.95749572 -2.59750368 4.22094347 0 0 Z " fill="#4B4E5A" transform="translate(192,360)"/>
<path d="M0 0 C0.86646667 1.43011973 1.71781829 2.86940619 2.5625 4.3125 C3.03816406 5.11300781 3.51382813 5.91351563 4.00390625 6.73828125 C5 9 5 9 4 12 C2.35 12.33 0.7 12.66 -1 13 C-1.86658615 11.73760288 -2.71792059 10.46472499 -3.5625 9.1875 C-4.27599609 8.12595703 -4.27599609 8.12595703 -5.00390625 7.04296875 C-6 5 -6 5 -5 2 C-2 0 -2 0 0 0 Z " fill="#4B4E5A" transform="translate(193,139)"/>
<path d="M0 0 C4.875 1.75 4.875 1.75 6 4 C5.00390625 6.1640625 5.00390625 6.1640625 3.5625 8.625 C3.08941406 9.44226563 2.61632812 10.25953125 2.12890625 11.1015625 C1.75636719 11.72804687 1.38382812 12.35453125 1 13 C-1.16874252 12.49396008 -2.99967627 12.00016187 -5 11 C-3.77472971 6.94718288 -2.30119506 3.55639236 0 0 Z " fill="#4A4C59" transform="translate(319,139)"/>
</svg>
